# xmcd
#
# Track frame offsets: 
#        150
#        10757
#        20335
#        31327
#        40918
#        50932
#        60202
#        71384
#        83128
#        93131
#        103122
#        109915
#        119924
#        126656
#        137603
#        149383
#        159633
#        172651
#        184341
#        197119
#        206732
#        216949
#        228342
#        240154
#        251593
#        263008
#        272699
#        282045
#        296970
#        309230
#        316240
#        323861
#        330854
#        338382
#        348231
#        356315
#
# Disc length: 4847 seconds
#
# Revision: 0
# Processed by: cddbd v1.5.2PL0 Copyright (c) Steve Scherf et al.
# Submitted via: ExactAudioCopy v0.99pb4
#
DISCID=0a12ed24
DTITLE=Eddie Noack - Gentlemen Prefer Blondes - Disc 2
DYEAR=1900
DGENRE=Country
TTITLE0=Fair Today, Cold Tomorrow
TTITLE1=Gentlemen Prefer Blondes
TTITLE2=Take It Away Lucky
TTITLE3=Don't Trade
TTITLE4=Left Over Lovin'
TTITLE5=Don't Worry 'Bout Me Baby
TTITLE6=I'll Be So Good To You
TTITLE7=Thing Of Her Now
TTITLE8=Wind Me Up
TTITLE9=If It Ain't On The Menu
TTITLE10=Me And My New Baby
TTITLE11=The Live You've Lived
TTITLE12=You Done Got Me
TTITLE13=The Life You've Lived
TTITLE14=If Hearts Could Talk
TTITLE15=When The Bright Lights Grow Dim
TTITLE16=Think Of Her Now
TTITLE17=It Ain't Much But It's Home
TTITLE18=For You I Weep
TTITLE19=You Done Got Me
TTITLE20=The Worm Has Turned
TTITLE21=She Can't Stand The Light Of Day
TTITLE22=Think Of Her Now
TTITLE23=Scarecrow
TTITLE24=Dust On The River
TTITLE25=What's The Matter Joe
TTITLE26=Gentlemen Prefer Blondes (alt)
TTITLE27=For You I Weep (alt)
TTITLE28=Can You Answer To God
TTITLE29=Lucky In Cards
TTITLE30=Mister Nice Guy
TTITLE31=Six Feet Down
TTITLE32=Relief Is Just A Swallow Away
TTITLE33=Are You Really Here
TTITLE34=It's Hard To Tell And Old Love Goodbye
TTITLE35=That Certain You Know What
EXTD=
EXTT0=
EXTT1=
EXTT2=
EXTT3=
EXTT4=
EXTT5=
EXTT6=
EXTT7=
EXTT8=
EXTT9=
EXTT10=
EXTT11=
EXTT12=
EXTT13=
EXTT14=
EXTT15=
EXTT16=
EXTT17=
EXTT18=
EXTT19=
EXTT20=
EXTT21=
EXTT22=
EXTT23=
EXTT24=
EXTT25=
EXTT26=
EXTT27=
EXTT28=
EXTT29=
EXTT30=
EXTT31=
EXTT32=
EXTT33=
EXTT34=
EXTT35=
PLAYORDER=
